<?xml version="1.0" encoding="UTF-8"?><svg id="a" xmlns="http://www.w3.org/2000/svg" viewBox="0 0 207.83 74.56"><defs><style>.b{fill:#fff;}.c{fill:#ca9a2c;}.d{isolation:isolate;}</style></defs><g class="d" transform="translate(27.64 47.45)"><g class="d"><path class="c" d="M34.45,24.7c.51-.73,.47-.87,.33-1.02-.11-.11-.18-.29-.07-.76,.62-2,1.78-3.52,3.49-4.65,.69-.44,1.27,0,1.6,.58,.51,.76-1.89,4.4-2.76,5.7-.11,.18-.22,.29-.25,.4-1.42,2.11-2.83,4.21-4.25,6.28-3.78,5.49-7.48,11.08-11.12,16.71-.18,.25-.33,.44-.44,.62-.44,.62-.4,.69,.47,.25,.11-.04,.22-.11,.33-.15,4.25-1.85,8.83-3.96,13.73-6.36,4.9-2.4,9.59-5.01,14.13-7.81s8.43-5.78,11.62-8.86c7.08-7.12,10.86-18.45-3.23-19.07-4.54-.07-10.21,.87-17.07,2.87-6.87,2-13.44,4.58-19.8,7.74-6.36,3.16-11.01,6.43-13.95,9.88-1.74,2.03-2.18,4.07,.33,5.63,.58,.33,.84,.04,.98-.29,.22-.36,.36-.62,.98-.18,1.53,1.31,1.09,3.71-.8,3.2-5.2-1.85-6.32-5.27-2.83-9.63,3.09-3.6,7.88-7.01,14.35-10.28,6.5-3.27,13.22-5.92,20.23-7.96,7.01-2.07,12.9-3.05,17.66-2.94,16.06,.62,12.68,13.91,4.43,22.23-3.41,3.34-7.48,6.5-12.24,9.48-4.76,2.98-9.7,5.7-14.82,8.14s-9.99,4.54-14.57,6.32c-1.67,.65-1.89,.84-2.65,2.18-.11,.15-.18,.29-.29,.47-.47,.8-.98,1.6-1.49,2.43-1.85,2.87-3.52,5.81-5.09,8.83-.84,1.42-1.78,.98-1.16-.51,1.85-3.67,3.85-7.27,5.96-10.79,.55-.91,.62-1.05-.22-.73-4.87,1.78-9.81,3.31-14.86,4.5-1.31,.22-1.53-.8-.25-1.09,5.12-1.27,10.28-3.16,15.18-5.09,.29-.11,.55-.22,.76-.29,1.24-.47,1.2-.44,2.03-1.74,.04-.11,.11-.25,.22-.36,4.87-8.14,9.99-16.09,15.4-23.9Z"/></g><g class="d"><path class="c" d="M51.91,54.49c2.03-3.23,4.61-7.41,7.77-12.5,.84-1.56,2.51-4.47,5.05-8.72,2.54-4.29,5.38-8.9,8.5-13.88,3.12-4.98,5.96-9.34,8.54-13.01,2.58-3.71,4.36-5.78,5.3-6.21,1.49-.44,2.22-.07,2.18,1.09,0,1.13-.4,2.62-1.24,4.43-.8,1.78-1.67,3.49-2.58,5.09-.91,1.56-1.49,2.58-1.78,3.05t-.04,.07c-3.31,5.34-6.97,10.72-11.01,16.13-4,5.41-7.08,9.01-9.23,10.86-.4,.29-.69,.47-.84,.54-.36,.22-.47,.29-1.13,1.38l-14.42,23.5c.25,0-.98,2.54-2.22,1.93-1.13-.51-.04-2.14,7.12-13.77Zm13.84-18.13c2.4-3.05,5.09-6.72,8.03-11.01,2.94-4.29,5.67-8.43,8.17-12.46,5.96-9.88,6.76-12.82,3.31-8.32-4.83,6.68-9.55,14.5-14.06,22.2-1.92,3.23-3.78,6.36-5.63,9.37-.69,1.05-.69,1.27,.18,.22Z"/><path class="c" d="M89.72,42.97c-.91,.54-2.11,1.09-3.56,1.63-1.42,.51-2.72,.65-3.85,.47-1.13-.22-1.74-1.13-1.78-2.76v-.18c.04-.69,0-.65-.69-.22-3.74,2.43-6.5,3.96-8.28,4.58-1.74,.62-2.76,.62-3.09,.07-.4-.76,.11-1.96,1.45-3.6s3.09-3.2,5.23-4.69c2.14-1.49,4.21-2.36,6.18-2.65,1.96-.33,3.34,.47,4.14,2.32,.15,.47-.22,.91-.69,1.05s-1.2-.29-1.45-.76c0-.11,.07-.18,.11-.29,.04-.11,.11-.18,.07-.29-.62-.84-1.63-.94-3.12-.36-1.49,.58-3.05,1.49-4.69,2.72-1.63,1.24-3.05,2.4-4.18,3.52-1.13,1.09-1.67,1.74-1.6,2,.11,.25,1.05-.15,2.87-1.2,1.82-1.05,4.8-2.98,8.94-5.85,.44-.25,.94-.18,1.23,.25,.18,.29,.18,.58,.04,.87-.91,2-1.02,3.2-.33,3.67,.73,.47,1.74,.51,3.09,.11,1.34-.4,2.51-.87,3.49-1.42,1.31-.69,1.63,.15,.47,.98Z"/><path class="c" d="M97.06,34.73c-.84,.29-1.74,1.16-2.69,2.58-.94,1.42-1.78,2.98-2.47,4.61s-1.09,2.91-1.2,3.81c-.11,1.85,.22,2.73,1.02,2.69,.8-.04,2.14-.84,4.07-2.32s4.03-3.27,6.36-5.27c2.29-2,4.47-3.81,6.5-5.38,2.03-1.6,3.56-2.51,4.58-2.76,1.34,.15,2,.58,1.96,1.27-.04,.69-.33,1.45-.84,2.32-.07,.11-.15,.25-.22,.4-.98,1.85-2.07,3.67-3.34,5.41-.51,.76-1.02,1.49-1.49,2.25-.62,.94-1.2,1.93-1.78,2.91-.4,.69-.84,1.38-1.27,2.07-.07,.11-.15,.25-.22,.36-.4,.55-.8,1.13-.62,1.67,.07,.4-.04,.69-.33,.91-1.27,.91-1.71,1.6-2.18,2.58-.18,.4-.47,.84-.8,1.38-.25,.47-.65,1.13-1.2,2.03-1.09,1.89-2.47,4.14-4.1,6.76-1.63,2.65-3.27,4.94-4.9,6.87-1.63,1.93-2.94,2.83-4,2.65-1.53-.44-.58-2.87-.11-3.96,.04-.07,.04-.15,.07-.22,1.34-3.2,3.23-6.28,5.67-9.3s4.98-5.59,7.63-7.81c1.05-.87,1.49-1.53,2.11-2.54l.22-.33,7.23-11.59c3.96-6.32-.15-2.87-5.59,1.85-2.43,2.07-4.83,4.07-7.23,5.92s-4.29,2.94-5.67,3.27c-2.29,.4-3.85-.8-3.52-4.69,.33-2.36,1.2-4.76,2.62-7.16,1.45-2.4,3.05-4.43,4.76-6.07,1.78-1.13,3.34,2.22,.98,2.8Zm-4.36,32.66c1.16-1.78,6.47-9.52,5.7-9.3-.73,.22-7.67,10.17-8.61,12.13-2.36,5.85,2.11-1.53,2.72-2.58,.04-.04,.07-.15,.18-.25Z"/><path class="c" d="M117.61,41.99c.15-.11,.51-.44,1.05-.98l17.73-28.48c5.34-3.52,2.22,5.23,1.34,7.23-1.53,3.27-3.52,6.5-6.03,9.74-2.51,3.2-4.9,5.99-7.23,8.43-2.32,2.43-4,4.07-4.98,4.98l-2.14,3.23c-1.27,1.85-.54,1.34,1.09-.15,1.92-1.82,4.03-3.71,6.28-5.67,2.29-1.96,4.4-3.6,6.36-4.87,2-1.31,3.52-1.85,4.58-1.67,1.42,.36,1.71,2,.91,4.87-1.16,4.54-.91,6.83,.22,7.16,1.49,.4,4.21-.58,8.17-2.91,.73-.44,1.34,.51,.4,1.16-4.21,2.65-7.19,3.96-9.19,3.34-2.25-.62-2.62-3.78-1.05-9.48,.47-1.93,.25-2.76-.69-2.54-.94,.22-2.29,1.05-4.07,2.54-1.78,1.45-3.67,3.12-5.67,5.01-2.29,2.14-4.36,3.92-6.21,5.41-1.85,1.49-3.05,2.03-3.63,1.67-1.24-.87,.11-3.09,.91-4.36,.11-.15,.18-.29,.25-.4l.84-1.34c.22-.44,.36-.84,.4-1.16,.04-.33,.15-.54,.33-.73l.04-.04Zm10.97-11.7c2.54-2.94,4.65-6.03,6.36-9.19,5.09-9.95-2.72,2-5.89,7.05-.62,.98-1.05,1.6-1.24,1.89-3.16,4.76-2.91,4.87,.76,.25Z"/><path class="c" d="M146.12,49.4c-1.49-.44-2.18-1.71-2.14-3.85,.04-2.14,1.56-4.98,4.54-8.43,1.13-1.23,2.03-1.96,2.73-2.14,1.13-.4,1.85,.07,1.31,1.42-1.02,1.05-1.6,1.16-2,1.13-.18,0-.36,0-.51,.18-7.08,8.17-4.47,11.73-1.45,10.06,.98-.58,2.36-2.43,3.12-4,.07-.11,.15-.22,.18-.29,.15-.18,.18-.33-.07-.51-.87-.87-1.71-2.51-1.31-3.67,.55-1.13,3.31-.44,3.38,2.62,.15,2.22,2.62,2.14,3.67,1.16,.94-.87,1.24,.51-.51,1.31-1.85,.73-2.76,.33-3.23,0-.33-.29-.62-.33-.91,.25-.47,.87-1.31,2.22-2,2.94-1.71,1.63-3.31,2.25-4.8,1.82Z"/><path class="c" d="M161.27,40.03c-.15,.04-.36,.07-.4,.22-1.24,1.67-3.71,6.39-1.38,6.39,1.85-.18,3.96-1.09,6.32-2.72s4.36-3.16,6.07-4.58c.33-.25,.58-.47,.83-.65,1.27-1.13,3.74-2.73,4.51-1.53,.04,.58-.07,1.31-.33,2.18-1.49,6.39,2.76,4.87,7.23,2.98,1.45-.73,1.45,.4,.4,.91-5.05,2.62-10.61,3.45-9.88-2.32,.25-1.71,0-1.67-1.45-.4-.04,.04-.07,.04-.11,.07-.18,.18-.4,.36-.65,.54-1.71,1.49-3.71,2.98-5.99,4.47-2.29,1.49-4.5,2.32-6.65,2.51-.76,.04-1.45-.11-2-.4-2.76-1.85,.11-6.43,1.53-8.68,.11-.22,.22-.4,.33-.58,.47-.73,1.42-1.13,2-1.02,.76,.07,1.34,.58-.15,2.51-.04,.04-.11,.07-.22,.11Z"/><path class="c" d="M183.42,44.35c.62-1.6,1.38-3.16,2.22-4.69,.83-1.52,1.82-2.4,2.87-2.58,.69,.14,1.16,.69,.62,1.38-.84,1.13-1.38,1.67-2,2.29-.33,.33-.69,.73-1.16,1.2-.33,.8-.62,1.6-.91,2.4-.11,.4-.25,.76-.4,1.13-.22,.8-.14,.8,.33,.65t.07-.04c1.49-.44,1.49,.76,.65,1.24-.25,.14-.54,.22-.8,.25-.33,.04-.62,.18-.91,.36-.33,.25-.69,.8-.94,1.24-.91,1.78-2.22,3.41-3.92,4.98-1.71,1.56-3.71,2.47-6.03,2.8-7.45,.84,2.54-6.32,8.72-9.55,.4-.25,.91-1.45,1.6-3.05Zm-2.76,5.05c-1.96,.87-8.79,6.14-8.06,6.14,.8,.04,1.96-.4,3.45-1.34,1.49-.91,2.8-2.03,3.92-3.34,.47-.58,1.31-1.67,.69-1.45Z"/><path class="c" d="M203.22,36.94c-.25,.87-.98,1.78-2.11,2.72-1.13,.94-2.32,1.67-3.56,2.14-1.2,.47-2.11,.44-2.65-.07-.4,.47-.83,1.13-1.34,1.92-.47,.76-.76,1.45-.84,2.07,0,.91,.62,1.31,1.89,1.2,1.27-.11,2.76-.51,4.51-1.2s3.34-1.38,4.79-2.07c1.45-.73,2.36-1.23,2.76-1.49,.84-.54,2.03-.18,.18,1.16-.73,.51-1.96,1.23-3.71,2.18-1.71,.91-3.56,1.71-5.49,2.4-1.92,.69-3.6,.91-4.94,.69s-2-1.2-1.96-2.98c.11-1.2,.8-2.62,2.03-4.25,1.24-1.63,2.65-3.09,4.29-4.32,1.63-1.27,3.16-1.89,4.5-1.85,1.34,.29,1.89,.87,1.63,1.74Zm-6.83,3.92c.69-.25,1.56-.73,2.58-1.38,1.02-.69,1.78-1.31,2.32-1.85,.47-.54,.47-.69-.44-.44-1.09,.36-7.12,4.54-4.47,3.67Z"/></g></g><g class="d" transform="translate(114.75 57.99)"><g class="d"><path class="b" d="M109.61,60.14v-5.38h2.02c.41,0,.74,.06,.99,.16s.44,.28,.58,.5c.14,.23,.21,.46,.21,.71,0,.23-.06,.45-.19,.65s-.31,.37-.57,.49c.33,.1,.58,.26,.75,.49s.26,.5,.26,.81c0,.25-.05,.49-.16,.7-.11,.22-.24,.38-.39,.5s-.35,.21-.59,.27c-.24,.06-.53,.09-.87,.09h-2.05Zm.71-3.12h1.16c.32,0,.54-.02,.68-.06,.18-.05,.32-.14,.41-.27s.14-.28,.14-.47c0-.18-.04-.34-.13-.47-.09-.13-.21-.23-.37-.28-.16-.05-.43-.07-.82-.07h-1.08v1.63Zm0,2.49h1.34c.23,0,.39,0,.48-.03,.16-.03,.3-.08,.41-.15s.2-.17,.27-.3,.11-.28,.11-.45c0-.2-.05-.37-.15-.52s-.25-.25-.43-.31c-.18-.06-.44-.09-.79-.09h-1.24v1.85Z"/><path class="b" d="M115.41,57.52c0-.89,.24-1.59,.72-2.1s1.1-.76,1.86-.76c.5,0,.94,.12,1.34,.36s.7,.57,.91,.99c.21,.43,.31,.91,.31,1.45s-.11,1.03-.33,1.46-.53,.76-.94,.98-.84,.33-1.31,.33c-.51,0-.96-.12-1.36-.37s-.7-.58-.91-1-.31-.87-.31-1.34Zm.73,.01c0,.65,.17,1.16,.52,1.53s.79,.56,1.31,.56,.98-.19,1.32-.57,.52-.91,.52-1.6c0-.44-.07-.82-.22-1.15-.15-.33-.36-.58-.65-.76-.29-.18-.61-.27-.96-.27-.5,0-.94,.17-1.3,.52s-.55,.92-.55,1.73Z"/></g><g class="d"><path class="b" d="M121.98,60.14l2.08-2.8-1.84-2.58h.85l.98,1.38c.2,.29,.35,.51,.43,.66,.12-.2,.26-.4,.43-.61l1.08-1.43h.77l-1.89,2.54,2.04,2.85h-.88l-1.35-1.92c-.08-.11-.15-.23-.23-.36-.12,.2-.21,.33-.26,.4l-1.35,1.88h-.86Z"/></g><g class="d"><path class="b" d="M132.08,57.52c0-.89,.24-1.59,.72-2.1s1.1-.76,1.86-.76c.5,0,.94,.12,1.34,.36s.7,.57,.91,.99c.21,.43,.31,.91,.31,1.45s-.11,1.03-.33,1.46-.53,.76-.94,.98-.84,.33-1.31,.33c-.51,0-.96-.12-1.36-.37s-.7-.58-.91-1-.31-.87-.31-1.34Zm.73,.01c0,.65,.17,1.16,.52,1.53s.79,.56,1.31,.56,.98-.19,1.32-.57,.52-.91,.52-1.6c0-.44-.07-.82-.22-1.15-.15-.33-.36-.58-.65-.76-.29-.18-.61-.27-.96-.27-.5,0-.94,.17-1.3,.52s-.55,.92-.55,1.73Z"/><path class="b" d="M139.15,60.14v-5.38h3.63v.64h-2.92v1.67h2.53v.64h-2.53v2.44h-.71Z"/><path class="b" d="M144.72,60.14v-5.38h3.63v.64h-2.92v1.67h2.53v.64h-2.53v2.44h-.71Z"/><path class="b" d="M150.38,60.14v-5.38h.71v5.38h-.71Z"/></g><g class="d"><path class="b" d="M157.32,58.25l.71,.18c-.15,.58-.42,1.03-.81,1.34-.39,.31-.86,.46-1.42,.46s-1.05-.12-1.42-.35-.64-.58-.83-1.03-.28-.93-.28-1.44c0-.56,.11-1.05,.32-1.47s.52-.73,.91-.95c.4-.22,.83-.32,1.31-.32,.54,0,.99,.14,1.36,.41s.62,.66,.77,1.16l-.7,.17c-.12-.39-.31-.68-.54-.86s-.54-.27-.9-.27c-.41,0-.76,.1-1.04,.3s-.47,.46-.58,.8c-.11,.34-.17,.68-.17,1.03,0,.46,.07,.86,.2,1.2,.13,.34,.34,.6,.62,.77s.59,.25,.91,.25c.4,0,.74-.12,1.01-.35s.46-.57,.56-1.02Z"/></g><g class="d"><path class="b" d="M159.92,60.14v-5.38h3.89v.64h-3.18v1.65h2.98v.63h-2.98v1.83h3.3v.64h-4.02Z"/></g></g></svg>