<?xml version="1.0" encoding="UTF-8"?><svg id="a" xmlns="http://www.w3.org/2000/svg" viewBox="0 0 53.96 19.55"><defs><style>.b{fill:#fff;}.c{fill:#ca9a2c;stroke:#ca9a2c;stroke-miterlimit:10;stroke-width:.3px;}</style></defs><g transform="translate(27.64 47.45)"><path class="c" d="M9.04,6.53c.13-.19,.12-.22,.09-.26-.03-.03-.05-.07-.02-.2,.16-.52,.46-.91,.9-1.2,.18-.11,.33,0,.41,.15,.13,.2-.49,1.14-.71,1.47-.03,.05-.06,.07-.06,.1-.37,.54-.73,1.09-1.1,1.62-.98,1.42-1.93,2.86-2.87,4.31-.05,.06-.09,.11-.11,.16-.11,.16-.1,.18,.12,.06,.03-.01,.06-.03,.09-.04,1.1-.48,2.28-1.02,3.55-1.64,1.27-.62,2.48-1.29,3.65-2.02s2.18-1.49,3-2.29c1.83-1.84,2.8-4.76-.83-4.92-1.17-.02-2.64,.22-4.41,.74-1.77,.52-3.47,1.18-5.11,2-1.64,.82-2.84,1.66-3.6,2.55-.45,.52-.56,1.05,.09,1.45,.15,.09,.22,.01,.25-.07,.06-.09,.09-.16,.25-.05,.4,.34,.28,.96-.21,.83-1.34-.48-1.63-1.36-.73-2.49,.8-.93,2.03-1.81,3.71-2.65,1.68-.84,3.41-1.53,5.22-2.06,1.81-.53,3.33-.79,4.56-.76,4.15,.16,3.27,3.59,1.14,5.74-.88,.86-1.93,1.68-3.16,2.45s-2.5,1.47-3.83,2.1-2.58,1.17-3.76,1.63c-.43,.17-.49,.22-.68,.56-.03,.04-.05,.07-.07,.12-.12,.21-.25,.41-.38,.63-.48,.74-.91,1.5-1.31,2.28-.22,.37-.46,.25-.3-.13,.48-.95,.99-1.88,1.54-2.79,.14-.23,.16-.27-.06-.19-1.26,.46-2.53,.85-3.84,1.16-.34,.06-.4-.21-.06-.28,1.32-.33,2.65-.82,3.92-1.31,.07-.03,.14-.06,.2-.07,.32-.12,.31-.11,.52-.45,.01-.03,.03-.06,.06-.09,1.26-2.1,2.58-4.15,3.98-6.17h0Z"/><g><path class="c" d="M13.55,14.22c.52-.83,1.19-1.91,2.01-3.23,.22-.4,.65-1.15,1.3-2.25,.66-1.11,1.39-2.3,2.19-3.58,.81-1.29,1.54-2.41,2.21-3.36,.67-.96,1.13-1.49,1.37-1.6,.38-.11,.57-.02,.56,.28,0,.29-.1,.68-.32,1.14-.21,.46-.43,.9-.67,1.31-.23,.4-.38,.67-.46,.79-.05,.08-.05,.09-.01,.02-.85,1.38-1.8,2.77-2.84,4.16-1.03,1.4-1.83,2.33-2.38,2.8-.1,.07-.18,.12-.22,.14-.09,.06-.12,.07-.29,.36l-3.72,6.07c.06,0-.25,.66-.57,.5-.29-.13-.01-.55,1.84-3.56h0Zm3.57-4.68c.62-.79,1.31-1.74,2.07-2.84,.76-1.11,1.46-2.18,2.11-3.22,1.54-2.55,1.75-3.31,.85-2.15-1.25,1.72-2.47,3.74-3.63,5.73-.5,.83-.98,1.64-1.45,2.42-.18,.27-.18,.33,.05,.06Z"/><path class="c" d="M23.32,11.25c-.23,.14-.54,.28-.92,.42-.37,.13-.7,.17-.99,.12-.29-.06-.45-.29-.46-.71v-.05c.01-.18,0-.17-.18-.06-.97,.63-1.68,1.02-2.14,1.18-.45,.16-.71,.16-.8,.02-.1-.2,.03-.51,.37-.93s.8-.83,1.35-1.21c.55-.38,1.09-.61,1.6-.68,.51-.09,.86,.12,1.07,.6,.04,.12-.06,.23-.18,.27s-.31-.07-.37-.2c0-.03,.02-.05,.03-.07s.03-.05,.02-.07c-.16-.22-.42-.24-.81-.09-.38,.15-.79,.38-1.21,.7-.42,.32-.79,.62-1.08,.91-.29,.28-.43,.45-.41,.52,.03,.06,.27-.04,.74-.31s1.24-.77,2.31-1.51c.11-.06,.24-.05,.32,.06,.05,.07,.05,.15,.01,.22-.23,.52-.26,.83-.09,.95,.19,.12,.45,.13,.8,.03,.35-.1,.65-.22,.9-.37,.34-.18,.42,.04,.12,.25h0Z"/><path class="c" d="M25.21,9.12c-.22,.07-.45,.3-.69,.67-.24,.37-.46,.77-.64,1.19s-.28,.75-.31,.98c-.03,.48,.06,.7,.26,.69,.21-.01,.55-.22,1.05-.6s1.04-.84,1.64-1.36c.59-.52,1.15-.98,1.68-1.39,.52-.41,.92-.65,1.18-.71,.35,.04,.52,.15,.51,.33s-.09,.37-.22,.6c-.02,.03-.04,.06-.06,.1-.25,.48-.53,.95-.86,1.4-.13,.2-.26,.38-.38,.58-.16,.24-.31,.5-.46,.75-.1,.18-.22,.36-.33,.53-.02,.03-.04,.06-.06,.09-.1,.14-.21,.29-.16,.43,.02,.1-.01,.18-.09,.23-.33,.23-.44,.41-.56,.67-.05,.1-.12,.22-.21,.36-.06,.12-.17,.29-.31,.52-.28,.49-.64,1.07-1.06,1.75-.42,.68-.84,1.28-1.27,1.77-.42,.5-.76,.73-1.03,.68-.4-.11-.15-.74-.03-1.02,.01-.02,.01-.04,.02-.06,.35-.83,.83-1.62,1.46-2.4s1.29-1.44,1.97-2.02c.27-.22,.38-.4,.54-.66l.06-.09,1.87-2.99c1.02-1.63-.04-.74-1.44,.48-.63,.53-1.25,1.05-1.87,1.53s-1.11,.76-1.46,.84c-.59,.1-.99-.21-.91-1.21,.09-.61,.31-1.23,.68-1.85,.37-.62,.79-1.14,1.23-1.57,.46-.29,.86,.57,.25,.72h0Zm-1.13,8.44c.3-.46,1.67-2.46,1.47-2.4-.19,.06-1.98,2.63-2.22,3.13-.61,1.51,.54-.4,.7-.67,.01-.01,.02-.04,.05-.06h0Z"/><path class="c" d="M30.52,10.99s.13-.11,.27-.25l4.58-7.35c1.38-.91,.57,1.35,.35,1.87-.4,.84-.91,1.68-1.56,2.51-.65,.83-1.27,1.55-1.87,2.18-.6,.63-1.03,1.05-1.29,1.29l-.55,.83c-.33,.48-.14,.35,.28-.04,.5-.47,1.04-.96,1.62-1.46,.59-.51,1.14-.93,1.64-1.26,.52-.34,.91-.48,1.18-.43,.37,.09,.44,.52,.23,1.26-.3,1.17-.23,1.76,.06,1.85,.38,.1,1.09-.15,2.11-.75,.19-.11,.35,.13,.1,.3-1.09,.68-1.86,1.02-2.37,.86-.58-.16-.68-.98-.27-2.45,.12-.5,.06-.71-.18-.66-.24,.06-.59,.27-1.05,.66-.46,.37-.95,.81-1.46,1.29-.59,.55-1.13,1.01-1.6,1.4s-.79,.52-.94,.43c-.32-.22,.03-.8,.23-1.13,.03-.04,.05-.07,.06-.1l.22-.35c.06-.11,.09-.22,.1-.3,.01-.09,.04-.14,.09-.19h0Zm2.83-3.03c.66-.76,1.2-1.56,1.64-2.37,1.31-2.57-.7,.52-1.52,1.82-.16,.25-.27,.41-.32,.49-.82,1.23-.75,1.26,.2,.06h0Z"/><path class="c" d="M37.88,12.91c-.38-.11-.56-.44-.55-.99s.4-1.29,1.17-2.18c.29-.32,.52-.51,.7-.55,.29-.1,.48,.02,.34,.37-.26,.27-.41,.3-.52,.29-.05,0-.09,0-.13,.05-1.83,2.11-1.15,3.03-.37,2.6,.25-.15,.61-.63,.81-1.03,.02-.03,.04-.06,.05-.07,.04-.05,.05-.09-.02-.13-.22-.22-.44-.65-.34-.95,.14-.29,.85-.11,.87,.68,.04,.57,.68,.55,.95,.3,.24-.22,.32,.13-.13,.34-.48,.19-.71,.09-.83,0-.09-.07-.16-.09-.23,.06-.12,.22-.34,.57-.52,.76-.44,.42-.85,.58-1.24,.47h0Z"/><path class="c" d="M41.79,10.49s-.09,.02-.1,.06c-.32,.43-.96,1.65-.36,1.65,.48-.05,1.02-.28,1.63-.7s1.13-.82,1.57-1.18c.09-.06,.15-.12,.21-.17,.33-.29,.97-.7,1.16-.4,.01,.15-.02,.34-.09,.56-.38,1.65,.71,1.26,1.87,.77,.37-.19,.37,.1,.1,.23-1.3,.68-2.74,.89-2.55-.6,.06-.44,0-.43-.37-.1-.01,.01-.02,.01-.03,.02-.05,.05-.1,.09-.17,.14-.44,.38-.96,.77-1.55,1.15-.59,.38-1.16,.6-1.72,.65-.2,.01-.37-.03-.52-.1-.71-.48,.03-1.66,.4-2.24,.03-.06,.06-.1,.09-.15,.12-.19,.37-.29,.52-.26,.2,.02,.35,.15-.04,.65-.01,.01-.03,.02-.06,.03h0Z"/><path class="c" d="M47.51,11.6c.16-.41,.36-.82,.57-1.21,.21-.39,.47-.62,.74-.67,.18,.04,.3,.18,.16,.36-.22,.29-.36,.43-.52,.59-.09,.09-.18,.19-.3,.31-.09,.21-.16,.41-.23,.62-.03,.1-.06,.2-.1,.29-.06,.21-.04,.21,.09,.17,.08-.03,.09-.03,.02-.01,.38-.11,.38,.2,.17,.32-.06,.04-.14,.06-.21,.06-.09,.01-.16,.05-.23,.09-.09,.06-.18,.21-.24,.32-.23,.46-.57,.88-1.01,1.29-.44,.4-.96,.64-1.56,.72-1.92,.22,.66-1.63,2.25-2.47,.1-.06,.23-.37,.41-.79h0Zm-.71,1.3c-.51,.22-2.27,1.59-2.08,1.59,.21,.01,.51-.1,.89-.35,.38-.23,.72-.52,1.01-.86,.12-.15,.34-.43,.18-.37h0Z"/><path class="c" d="M52.62,9.69c-.06,.22-.25,.46-.54,.7-.29,.24-.6,.43-.92,.55-.31,.12-.54,.11-.68-.02-.1,.12-.21,.29-.35,.5-.12,.2-.2,.37-.22,.53,0,.23,.16,.34,.49,.31s.71-.13,1.16-.31,.86-.36,1.24-.53c.37-.19,.61-.32,.71-.38,.22-.14,.52-.05,.05,.3-.19,.13-.51,.32-.96,.56-.44,.23-.92,.44-1.42,.62-.5,.18-.93,.23-1.28,.18s-.52-.31-.51-.77c.03-.31,.21-.68,.52-1.1,.32-.42,.68-.8,1.11-1.12,.42-.33,.82-.49,1.16-.48,.35,.07,.49,.22,.42,.45h0Zm-1.76,1.01c.18-.06,.4-.19,.67-.36,.26-.18,.46-.34,.6-.48,.12-.14,.12-.18-.11-.11-.28,.09-1.84,1.17-1.15,.95h0Z"/></g></g><g transform="translate(114.75 57.99)"><g><path class="b" d="M28.79,15.57v-1.39h.52c.11,0,.19,.02,.26,.04s.11,.07,.15,.13c.04,.06,.05,.12,.05,.18,0,.06-.02,.12-.05,.17s-.08,.1-.15,.13c.09,.03,.15,.07,.19,.13s.07,.13,.07,.21c0,.06-.01,.13-.04,.18-.03,.06-.06,.1-.1,.13s-.09,.05-.15,.07-.14,.02-.22,.02h-.53Zm.18-.8h.3c.08,0,.14,0,.18-.02,.05-.01,.08-.04,.11-.07s.04-.07,.04-.12c0-.05-.01-.09-.03-.12s-.05-.06-.1-.07-.11-.02-.21-.02h-.28v.42h0Zm0,.64h.35c.06,0,.1,0,.12,0,.04,0,.08-.02,.11-.04s.05-.04,.07-.08,.03-.07,.03-.12c0-.05-.01-.1-.04-.13s-.06-.06-.11-.08-.11-.02-.2-.02h-.32v.48Z"/><path class="b" d="M30.29,14.9c0-.23,.06-.41,.19-.54s.28-.2,.48-.2c.13,0,.24,.03,.35,.09s.18,.15,.23,.26c.05,.11,.08,.23,.08,.37s-.03,.27-.09,.38-.14,.2-.24,.25-.22,.09-.34,.09c-.13,0-.25-.03-.35-.1s-.18-.15-.23-.26-.08-.22-.08-.35h0Zm.19,0c0,.17,.04,.3,.13,.4s.2,.14,.34,.14,.25-.05,.34-.15,.13-.23,.13-.41c0-.11-.02-.21-.06-.3s-.09-.15-.17-.2c-.07-.05-.16-.07-.25-.07-.13,0-.24,.04-.34,.13s-.14,.24-.14,.45h0Z"/></g><path class="b" d="M31.98,15.57l.54-.72-.48-.67h.22l.25,.36c.05,.07,.09,.13,.11,.17,.03-.05,.07-.1,.11-.16l.28-.37h.2l-.49,.66,.53,.74h-.23l-.35-.5s-.04-.06-.06-.09c-.03,.05-.05,.09-.07,.1l-.35,.49h-.22Z"/><g><path class="b" d="M34.59,14.9c0-.23,.06-.41,.19-.54s.28-.2,.48-.2c.13,0,.24,.03,.35,.09s.18,.15,.23,.26c.05,.11,.08,.23,.08,.37s-.03,.27-.09,.38-.14,.2-.24,.25-.22,.09-.34,.09c-.13,0-.25-.03-.35-.1s-.18-.15-.23-.26-.08-.22-.08-.35h0Zm.19,0c0,.17,.04,.3,.13,.4s.2,.14,.34,.14,.25-.05,.34-.15,.13-.23,.13-.41c0-.11-.02-.21-.06-.3s-.09-.15-.17-.2c-.07-.05-.16-.07-.25-.07-.13,0-.24,.04-.34,.13s-.14,.24-.14,.45h0Z"/><path class="b" d="M36.42,15.57v-1.39h.94v.17h-.75v.43h.65v.17h-.65v.63h-.18Z"/><path class="b" d="M37.85,15.57v-1.39h.94v.17h-.75v.43h.65v.17h-.65v.63h-.18Z"/><path class="b" d="M39.32,15.57v-1.39h.18v1.39h-.18Z"/></g><path class="b" d="M41.11,15.09l.18,.05c-.04,.15-.11,.27-.21,.35s-.22,.12-.37,.12-.27-.03-.37-.09-.17-.15-.21-.27-.07-.24-.07-.37c0-.14,.03-.27,.08-.38s.13-.19,.23-.25c.1-.06,.21-.08,.34-.08,.14,0,.26,.04,.35,.11s.16,.17,.2,.3l-.18,.04c-.03-.1-.08-.18-.14-.22s-.14-.07-.23-.07c-.11,0-.2,.03-.27,.08s-.12,.12-.15,.21-.04,.18-.04,.27c0,.12,.02,.22,.05,.31,.03,.09,.09,.15,.16,.2s.15,.06,.23,.06c.1,0,.19-.03,.26-.09s.12-.15,.14-.26h0Z"/><path class="b" d="M41.78,15.57v-1.39h1v.17h-.82v.43h.77v.16h-.77v.47h.85v.17h-1.04Z"/></g></svg>